<?xml version="1.0" encoding="utf-8"?>
<!-- Generator: Adobe Illustrator 24.0.0, SVG Export Plug-In . SVG Version: 6.00 Build 0)  -->
<svg version="1.1" xmlns="http://www.w3.org/2000/svg" xmlns:xlink="http://www.w3.org/1999/xlink" x="0px" y="0px"
	 viewBox="0 0 40 30" style="enable-background:new 0 0 40 30;" xml:space="preserve">
<style type="text/css">
	.st0{display:none;}
	.st1{display:inline;fill:#E6E6E6;}
	.st2{fill:#333333;}
	.st3{fill:#BA1818;}
	.st4{fill:none;}
</style>
<g id="Layer_1">
</g>
<g id="Layer_2" class="st0">
	<rect x="1" y="1" class="st1" width="8" height="8"/>
	<rect x="11" y="1" class="st1" width="8" height="8"/>
	<rect x="21" y="1" class="st1" width="8" height="8"/>
	<rect x="31" y="1" class="st1" width="8" height="8"/>
	<rect x="1" y="11" class="st1" width="8" height="8"/>
	<rect x="11" y="11" class="st1" width="8" height="8"/>
	<rect x="21" y="11" class="st1" width="8" height="8"/>
	<rect x="31" y="11" class="st1" width="8" height="8"/>
	<rect x="1" y="21" class="st1" width="8" height="8"/>
	<rect x="11" y="21" class="st1" width="8" height="8"/>
	<rect x="21" y="21" class="st1" width="8" height="8"/>
	<rect x="31" y="21" class="st1" width="8" height="8"/>
</g>
<g id="Layer_3">
	<circle class="st2" cx="5" cy="2.5" r="2.5"/>
	<g>
		<path class="st2" d="M6.5,5.8L6.5,5.8L5,10h5L8.8,7.3C8.4,6.4,7.5,5.8,6.5,5.8z"/>
		<path class="st2" d="M1.2,7.3L0,10h5L3.5,5.8h0C2.5,5.8,1.6,6.4,1.2,7.3z"/>
	</g>
	<polygon class="st2" points="5,8.8 6,5.8 4,5.8 	"/>
	<circle class="st2" cx="25" cy="12.6" r="2.5"/>
	<g>
		<path class="st2" d="M26.5,15.8L26.5,15.8L25,20h5l-1.2-2.7C28.4,16.4,27.5,15.8,26.5,15.8z"/>
		<path class="st2" d="M21.2,17.2L20,20h5l-1.5-4.2h0C22.5,15.8,21.6,16.4,21.2,17.2z"/>
	</g>
	<polygon class="st2" points="25,18.8 26,15.8 24,15.8 	"/>
	<circle class="st3" cx="15" cy="2.5" r="2.5"/>
	<g>
		<path class="st3" d="M16.5,5.8L16.5,5.8L15,10h5l-1.2-2.7C18.4,6.4,17.5,5.8,16.5,5.8z"/>
		<path class="st3" d="M11.2,7.3L10,10h5l-1.5-4.2h0C12.5,5.8,11.6,6.4,11.2,7.3z"/>
	</g>
	<polygon class="st3" points="15,8.8 16,5.8 14,5.8 	"/>
	<path class="st2" d="M24.6,0.1l-4.2,2.2c-0.5,0.2-0.5,0.9,0,1.1l4.2,2.2c0.2,0.1,0.5,0.1,0.7,0l4.2-2.2c0.5-0.2,0.5-0.9,0-1.1
		l-4.2-2.2C25.1,0,24.9,0,24.6,0.1z"/>
	<g>
		<path class="st2" d="M25.5,6.2c-0.3,0.2-0.7,0.2-1.1,0l-3-1.7v1.5v1.6c0,0.3,0.2,0.6,0.5,0.8l2.5,1.4c0.3,0.2,0.7,0.2,1.1,0
			l2.5-1.4c0.3-0.2,0.5-0.5,0.5-0.8V6.1V4.5L25.5,6.2z"/>
	</g>
	<path class="st3" d="M34.7,0.1l-4.2,2.2c-0.5,0.2-0.5,0.9,0,1.1l4.2,2.2c0.2,0.1,0.5,0.1,0.7,0l4.2-2.2c0.5-0.2,0.5-0.9,0-1.1
		l-4.2-2.2C35.1,0,34.9,0,34.7,0.1z"/>
	<g>
		<path class="st3" d="M35.5,6.2c-0.3,0.2-0.7,0.2-1.1,0l-3-1.7v1.5v1.6c0,0.3,0.2,0.6,0.5,0.8l2.5,1.4c0.3,0.2,0.7,0.2,1.1,0
			l2.5-1.4c0.3-0.2,0.5-0.5,0.5-0.8V6.1V4.5L35.5,6.2z"/>
	</g>
	<g>
		<path class="st2" d="M3.3,16.6c2.6-0.1,3-3,3-3.1c0,0,0.2-2.2,2.2-2.8C6.7,9.5,3.9,10.1,2,12.2c-1.8,1.8-2.3,4.3-1.5,5.9
			C1.1,17.3,2,16.7,3.3,16.6z"/>
		<path class="st2" d="M9,11.1c-1.9,0.4-2.1,2.3-2.1,2.4c0,0-0.4,3.6-3.6,3.7c-1.2,0.1-2,0.7-2.5,1.4C0.9,18.8,1,19,1.1,19.1
			c1.7,1.6,4.8,1,6.9-1.2C10.1,15.7,10.5,12.7,9,11.1z"/>
	</g>
	<g>
		<path class="st3" d="M13.2,16.5c2.6-0.1,3-3,3-3.1c0,0,0.2-2.1,2.2-2.8c-1.7-1.1-4.5-0.5-6.5,1.5c-1.8,1.8-2.3,4.2-1.5,5.8
			C11,17.2,11.9,16.6,13.2,16.5z"/>
		<path class="st3" d="M19,11.1c-1.9,0.3-2.1,2.3-2.1,2.4c0,0-0.4,3.5-3.6,3.6c-1.2,0.1-2,0.7-2.5,1.4c0.1,0.1,0.2,0.3,0.3,0.4
			c1.7,1.6,4.8,1,6.9-1.2C20.1,15.6,20.5,12.7,19,11.1z"/>
	</g>
	<g>
		<path class="st4" d="M32.7,10.7C32.6,10.7,32.6,10.7,32.7,10.7c-0.5,0-0.8,0.1-0.9,0.4c-0.2,0.3-0.2,0.6,0,0.9
			c0.2,0.4,0.5,0.7,2.9,1C34.4,12.2,33.9,10.7,32.7,10.7z"/>
		<path class="st4" d="M38.3,12c0.1-0.3,0.1-0.6,0-0.9c-0.2-0.3-0.5-0.4-0.8-0.4c0,0-0.1,0-0.1,0c-1.3,0-1.8,1.5-2,2.3
			C37.8,12.7,38,12.4,38.3,12z"/>
		<path class="st3" d="M30,17v2.1c0,0.4,0.4,0.8,0.8,0.8h3.8V17H30z"/>
		<path class="st3" d="M35.4,19.9h3.8c0.4,0,0.8-0.4,0.8-0.8V17h-4.6V19.9z"/>
		<path class="st3" d="M38.8,10.8c-0.3-0.5-0.8-0.7-1.4-0.7c-1.3,0-2,1.1-2.3,2c-0.3-0.9-1-2-2.3-2c0,0,0,0,0,0
			c-0.6,0-1.2,0.2-1.5,0.7c-0.3,0.5-0.3,1,0,1.5c0.3,0.6,0.8,1,2.5,1.2h1h0.2h0.3h0.2h1c1.7-0.3,2.2-0.6,2.5-1.2
			C39.1,11.8,39.1,11.2,38.8,10.8z M31.7,12c-0.1-0.3-0.1-0.6,0-0.9c0.2-0.3,0.5-0.4,0.8-0.4c0,0,0.1,0,0.1,0c1.3,0,1.8,1.5,1.9,2.3
			C32.2,12.7,32,12.4,31.7,12z M38.3,12c-0.2,0.4-0.5,0.7-2.9,1c0.2-0.8,0.7-2.3,2-2.3c0,0,0.1,0,0.1,0c0.4,0,0.7,0.1,0.8,0.4
			C38.4,11.4,38.4,11.7,38.3,12z"/>
		<path class="st3" d="M36.5,13.5h-0.9h-0.2v0.1v0v2.7h4.6v-2.1c0-0.4-0.4-0.8-0.8-0.8H36.5z"/>
		<path class="st3" d="M33.5,13.5h-2.7c-0.4,0-0.8,0.4-0.8,0.8v2.1h4.6v-2.7v0v-0.1h-0.2H33.5z"/>
	</g>
	<path class="st2" d="M4.2,20.2c-1.6,0.4-2.5,2.1-2.2,3.7c0.1,0.4,0.2,0.6,0.2,0.8l0.2,0.5l2.3,4.6c0.1,0.2,0.4,0.2,0.5,0l2.4-5
		L8,24.3c0.1-0.3,0.2-0.6,0.2-1C8.2,21.4,6.3,19.6,4.2,20.2z M5.1,24.1l-1.1-1.9l2.2,0L5.1,24.1z"/>
	<g>
		<path class="st2" d="M26.5,26.5h-3l-0.4-1.2H20v3.4c0,0.7,0.6,1.2,1.2,1.2h7.4c0.7,0,1.2-0.6,1.2-1.2v-3.4h-3.1L26.5,26.5z"/>
		<path class="st2" d="M28.7,22.4H28v-1.4c0-0.3-0.1-0.5-0.3-0.6c-0.4-0.4-1-0.3-1-0.3H25h-1.7c-0.1,0-0.7,0-1,0.3
			c-0.2,0.2-0.3,0.4-0.3,0.6v1.4h-0.7c-0.7,0-1.2,0.6-1.2,1.2v1h9.9v-1C29.9,23,29.4,22.4,28.7,22.4z M27.2,22.4l-4.4,0v-1.1
			c0-0.1,0-0.2,0.1-0.3c0.1-0.1,0.4-0.2,0.6-0.1H25l1.6,0c0.1,0,0.4,0,0.6,0.1c0,0,0.1,0.2,0.1,0.3V22.4z"/>
		<polygon class="st2" points="26.2,25.3 23.8,25.3 24,25.9 26,25.9 		"/>
	</g>
	<path class="st2" d="M31.8,27.8h-1.2c-0.3,0-0.6-0.3-0.6-0.6v-4.2c0-0.3,0.3-0.6,0.6-0.6h1.2c0.3,0,0.6,0.3,0.6,0.6v4.2
		C32.4,27.6,32.1,27.8,31.8,27.8z"/>
	<path class="st2" d="M33.1,23.2v3.9c0,0.4,0.2,0.8,0.6,0.9l5,1.9c0.6,0.2,1.2-0.3,1.2-0.9v-8c0-0.7-0.6-1.2-1.2-0.9l-5,2.2
		C33.4,22.5,33.1,22.8,33.1,23.2z"/>
	<polygon class="st2" points="18.3,20.3 12.6,25.9 14,27.3 19.7,21.7 	"/>
	<path class="st2" d="M12.2,26.3l-1.9,3.3c0,0,0,0,0,0.1c0,0.1-0.1,0.2,0.1,0l0,0l3.2-1.9L12.2,26.3z"/>
</g>
</svg>
